<svg xmlns="http://www.w3.org/2000/svg">
<symbol xmlns="http://www.w3.org/2000/svg" viewBox="0 0 512 512" fill="currentColor" id="logo-leaf"><path d="M272 96c-78.6 0-145.1 51.5-167.7 122.5c33.6-17 71.5-26.5 111.7-26.5h88c8.8 0 16 7.2 16 16s-7.2 16-16 16H288 216s0 0 0 0c-16.6 0-32.7 1.9-48.2 5.4c-25.9 5.9-50 16.4-71.4 30.7c0 0 0 0 0 0C38.3 298.8 0 364.9 0 440v16c0 13.3 10.7 24 24 24s24-10.7 24-24V440c0-48.7 20.7-92.5 53.8-123.2C121.6 392.3 190.3 448 272 448l1 0c132.1-.7 239-130.9 239-291.4c0-42.6-7.5-83.1-21.1-119.6c-2.6-6.9-12.7-6.6-16.2-.1C455.9 72.1 418.7 96 376 96L272 96z"/></symbol>
<!-- NAV -->
<symbol xmlns="http://www.w3.org/2000/svg" viewBox="0 0 640 512" fill="currentColor" id="nav-new-char"><path d="M96 128a128 128 0 1 1 256 0A128 128 0 1 1 96 128zM0 482.3C0 383.8 79.8 304 178.3 304h91.4C368.2 304 448 383.8 448 482.3c0 16.4-13.3 29.7-29.7 29.7H29.7C13.3 512 0 498.7 0 482.3zM504 312V248H440c-13.3 0-24-10.7-24-24s10.7-24 24-24h64V136c0-13.3 10.7-24 24-24s24 10.7 24 24v64h64c13.3 0 24 10.7 24 24s-10.7 24-24 24H552v64c0 13.3-10.7 24-24 24s-24-10.7-24-24z"/></symbol>
<symbol xmlns="http://www.w3.org/2000/svg" viewBox="0 0 640 512" fill="currentColor" id="nav-characters"><path d="M144 0a80 80 0 1 1 0 160A80 80 0 1 1 144 0zM512 0a80 80 0 1 1 0 160A80 80 0 1 1 512 0zM0 298.7C0 239.8 47.8 192 106.7 192h42.7c15.9 0 31 3.5 44.6 9.7c-1.3 7.2-1.9 14.7-1.9 22.3c0 38.2 16.8 72.5 43.3 96c-.2 0-.4 0-.7 0H21.3C9.6 320 0 310.4 0 298.7zM405.3 320c-.2 0-.4 0-.7 0c26.6-23.5 43.3-57.8 43.3-96c0-7.6-.7-15-1.9-22.3c13.6-6.3 28.7-9.7 44.6-9.7h42.7C592.2 192 640 239.8 640 298.7c0 11.8-9.6 21.3-21.3 21.3H405.3zM224 224a96 96 0 1 1 192 0 96 96 0 1 1 -192 0zM128 485.3C128 411.7 187.7 352 261.3 352H378.7C452.3 352 512 411.7 512 485.3c0 14.7-11.9 26.7-26.7 26.7H154.7c-14.7 0-26.7-11.9-26.7-26.7z"/></symbol>
<symbol xmlns="http://www.w3.org/2000/svg" viewBox="0 0 640 512" fill="currentColor" id="nav-bestiary"><path d="M352 124.5l-51.9-13c-6.5-1.6-11.3-7.1-12-13.8s2.8-13.1 8.7-16.1l40.8-20.4L294.4 28.8c-5.5-4.1-7.8-11.3-5.6-17.9S297.1 0 304 0H416h32 16c30.2 0 58.7 14.2 76.8 38.4l57.6 76.8c6.2 8.3 9.6 18.4 9.6 28.8c0 26.5-21.5 48-48 48H538.5c-17 0-33.3-6.7-45.3-18.7L480 160H448v21.5c0 24.8 12.8 47.9 33.8 61.1l106.6 66.6c32.1 20.1 51.6 55.2 51.6 93.1C640 462.9 590.9 512 530.2 512H496 432 32.3c-3.3 0-6.6-.4-9.6-1.4C13.5 507.8 6 501 2.4 492.1C1 488.7 .2 485.2 0 481.4c-.2-3.7 .3-7.3 1.3-10.7c2.8-9.2 9.6-16.7 18.6-20.4c3-1.2 6.2-2 9.5-2.2L433.3 412c8.3-.7 14.7-7.7 14.7-16.1c0-4.3-1.7-8.4-4.7-11.4l-44.4-44.4c-30-30-46.9-70.7-46.9-113.1V181.5v-57zM512 72.3c0-.1 0-.2 0-.3s0-.2 0-.3v.6zm-1.3 7.4L464.3 68.1c-.2 1.3-.3 2.6-.3 3.9c0 13.3 10.7 24 24 24c10.6 0 19.5-6.8 22.7-16.3zM130.9 116.5c16.3-14.5 40.4-16.2 58.5-4.1l130.6 87V227c0 32.8 8.4 64.8 24 93H112c-6.7 0-12.7-4.2-15-10.4s-.5-13.3 4.6-17.7L171 232.3 18.4 255.8c-7 1.1-13.9-2.6-16.9-9s-1.5-14.1 3.8-18.8L130.9 116.5z"/></symbol>
<symbol xmlns="http://www.w3.org/2000/svg" viewBox="0 0 448 512" fill="currentColor" id="nav-arcana"><path d="M96 0C43 0 0 43 0 96V416c0 53 43 96 96 96H384h32c17.7 0 32-14.3 32-32s-14.3-32-32-32V384c17.7 0 32-14.3 32-32V32c0-17.7-14.3-32-32-32H384 96zm0 384H352v64H96c-17.7 0-32-14.3-32-32s14.3-32 32-32zM264 200l16.6-38.8c2.8-6.5 11.9-6.5 14.7 0L312 200l38.8 16.6c6.5 2.8 6.5 11.9 0 14.7L312 248l-16.6 38.8c-2.8 6.5-11.9 6.5-14.7 0L264 248l-38.8-16.6c-6.5-2.8-6.5-11.9 0-14.7L264 200zM168.8 78.3c2.9-5.9 11.4-5.9 14.3 0L192 96l17.7 8.8c5.9 2.9 5.9 11.4 0 14.3L192 128l-8.8 17.7c-2.9 5.9-11.4 5.9-14.3 0L160 128l-17.7-8.8c-5.9-2.9-5.9-11.4 0-14.3L160 96l8.8-17.7z"/></symbol>
<symbol xmlns="http://www.w3.org/2000/svg" viewBox="0 0 512 512" fill="currentColor" id="nav-about"><path d="M278.5 215.6L23 471c-9.4 9.4-9.4 24.6 0 33.9s24.6 9.4 33.9 0l57-57h68c49.7 0 97.9-14.4 139-41c11.1-7.2 5.5-23-7.8-23c-5.1 0-9.2-4.1-9.2-9.2c0-4.1 2.7-7.6 6.5-8.8l81-24.3c2.5-.8 4.8-2.1 6.7-4l22.4-22.4c10.1-10.1 2.9-27.3-11.3-27.3l-32.2 0c-5.1 0-9.2-4.1-9.2-9.2c0-4.1 2.7-7.6 6.5-8.8l112-33.6c4-1.2 7.4-3.9 9.3-7.7C506.4 207.6 512 184.1 512 160c0-41-16.3-80.3-45.3-109.3l-5.5-5.5C432.3 16.3 393 0 352 0s-80.3 16.3-109.3 45.3L139 149C91 197 64 262.1 64 330v55.3L253.6 195.8c6.2-6.2 16.4-6.2 22.6 0c5.4 5.4 6.1 13.6 2.2 19.8z"/></symbol>
<symbol xmlns="http://www.w3.org/2000/svg" viewBox="0 0 512 512" fill="currentColor" id="nav-encounter"><path d="M4.7 4.7C8.5 .9 13.9-.7 19.1 .3L89.6 14.4c9.3 1.9 17.8 6.4 24.5 13.1L393.4 306.7l-86.6 86.6L27.5 114.2c-6.7-6.7-11.3-15.2-13.1-24.5L.3 19.1C-.7 13.9 .9 8.5 4.7 4.7zm454.6 304l16 16c4.7 4.7 6 11.8 3.3 17.8l-27.5 62 56.2 56.2c6.2 6.2 6.2 16.4 0 22.6l-24 24c-6.2 6.2-16.4 6.2-22.6 0l-56.2-56.2-62 27.5c-6.1 2.7-13.1 1.4-17.8-3.3l-16-16c-6.2-6.2-6.2-16.4 0-22.6l128-128c6.2-6.2 16.4-6.2 22.6 0zM96 329.4l50.7-50.7 86.6 86.6L182.6 416l20.7 20.7c6.2 6.2 6.2 16.4 0 22.6l-16 16c-4.7 4.7-11.8 6-17.8 3.3l-62-27.5L51.3 507.3c-6.2 6.2-16.4 6.2-22.6 0l-24-24c-6.2-6.2-6.2-16.4 0-22.6l56.2-56.2-27.5-62c-2.7-6.1-1.4-13.1 3.3-17.8l16-16c6.2-6.2 16.4-6.2 22.6 0L96 329.4zM484.5 114.2L365.3 233.4l-86.6-86.6L397.8 27.5c6.7-6.7 15.2-11.3 24.5-13.1L492.9 .3c5.2-1 10.7 .6 14.5 4.4s5.4 9.2 4.4 14.5L497.6 89.6c-1.9 9.3-6.4 17.8-13.1 24.5z"/></symbol>
<symbol xmlns="http://www.w3.org/2000/svg" viewBox="0 0 576 512" fill="currentColor" id="nav-gm"><path d="M432 0H288h0c-9.8 0-66 0-120.2 37.7C111.4 76.9 64 151.8 64 288c0 58.5-14.6 101.6-28.6 129.7c-7 14.1-14 24.5-19 31.1c-2.5 3.3-4.5 5.7-5.7 7.1c-.6 .7-1.1 1.2-1.3 1.4l-.2 .2c-9 9.1-11.7 22.8-6.8 34.7c5 12 16.6 19.8 29.6 19.8H160V320c0-70.7 57.3-128 128-128s128 57.3 128 128V512H544c12.9 0 24.6-7.8 29.6-19.8c4.9-11.9 2.2-25.6-6.8-34.7l0 0 0 0 0 0-.1-.1c-.2-.2-.7-.7-1.3-1.4c-1.3-1.4-3.2-3.8-5.7-7.1c-5-6.6-11.9-17-19-31.1C526.6 389.6 512 346.5 512 288c0-103.1-46.5-172.8-95.8-217.2l32-29c7.3-6.7 9.8-17.2 6.2-26.4S441.9 0 432 0z"/><path fill-opacity="0.4" d="M160 320c0-70.7 57.3-128 128-128s128 57.3 128 128V512H160V320z"/></symbol>
<symbol xmlns="http://www.w3.org/2000/svg" viewBox="0 0 576 512" fill="currentColor" id="nav-relics"><path d="M0 160v96H128V32C57.3 32 0 89.3 0 160zM0 432c0 26.5 21.5 48 48 48h80V288H0V432zM416 288H352v32c0 17.7-14.3 32-32 32H256c-17.7 0-32-14.3-32-32V288H160V480H416V288zM528 480c26.5 0 48-21.5 48-48V288H448V480h80zm48-320c0-70.7-57.3-128-128-128V256H576V160zM416 256V32H160V256h64V224c0-17.7 14.3-32 32-32h64c17.7 0 32 14.3 32 32v32h64zM304 240c0-8.8-7.2-16-16-16s-16 7.2-16 16v64c0 8.8 7.2 16 16 16s16-7.2 16-16V240z"/></symbol>
<symbol xmlns="http://www.w3.org/2000/svg" viewBox="0 0 640 512" fill="currentColor" id="nav-rungame"><path d="M304 32V408L96 368V34.7C96 14.9 113.8-.2 133.3 3.1L304 32zM89.7 405.1L320 451.2l230.3-46.1c15-3 25.7-16.1 25.7-31.4V28.8l25.7-5.1C621.5 19.7 640 34.8 640 55V421.8c0 15.3-10.8 28.4-25.7 31.4L320 512 25.7 453.1C10.8 450.2 0 437 0 421.8V55C0 34.8 18.5 19.7 38.3 23.7L64 28.8v345c0 15.3 10.8 28.4 25.7 31.4zM336 408V32L506.7 3.1C526.2-.2 544 14.9 544 34.7V368L336 408z"/></symbol>
<symbol xmlns="http://www.w3.org/2000/svg" viewBox="0 0 512 512" fill="currentColor" id="nav-tables"><path d="M0 96C0 60.7 28.7 32 64 32H448c35.3 0 64 28.7 64 64V416c0 35.3-28.7 64-64 64H64c-35.3 0-64-28.7-64-64V96zm64 0v64h64V96H64zm384 0H192v64H448V96zM64 224v64h64V224H64zm384 0H192v64H448V224zM64 352v64h64V352H64zm384 0H192v64H448V352z"/></symbol>
<symbol xmlns="http://www.w3.org/2000/svg" viewBox="0 0 512 512" fill="currentColor" id="nav-scenes"><path d="M0 96C0 60.7 28.7 32 64 32H448c35.3 0 64 28.7 64 64V416c0 35.3-28.7 64-64 64H64c-35.3 0-64-28.7-64-64V96zM323.8 202.5c-4.5-6.6-11.9-10.5-19.8-10.5s-15.4 3.9-19.8 10.5l-87 127.6L170.7 297c-4.6-5.7-11.5-9-18.7-9s-14.2 3.3-18.7 9l-64 80c-5.8 7.2-6.9 17.1-2.9 25.4s12.4 13.6 21.6 13.6h96 32H424c8.9 0 17.1-4.9 21.2-12.8s3.6-17.4-1.4-24.7l-120-176zM112 192a48 48 0 1 0 0-96 48 48 0 1 0 0 96z"/></symbol>

<!-- STATUSES -->
<symbol xmlns="http://www.w3.org/2000/svg" viewBox="0 0 576 512" fill="currentColor" id="status-deprived"><path d="M544 256c0 112.9-73.1 208.7-174.5 242.8C378.7 484 384 466.6 384 448V416.7c10.2-7.2 16-15.7 16-24.7c0-26.5-50.1-48-112-48s-112 21.5-112 48c0 9 5.8 17.5 16 24.7V448c0 18.6 5.3 36 14.5 50.8c-41.3-13.9-78-38-106.9-69.4C116.9 415 128 393.5 128 369c0-11.4-3.8-22.4-7.1-30.5c-3.7-8.7-8.4-17.6-13.2-25.7C98.1 296.7 87 281.3 80 272.1c-11.6-15.6-31.7-19.9-48-12.8c0-1.1 0-2.2 0-3.3C32 114.6 146.6 0 288 0S544 114.6 544 256zM96 369c0 14.2-6.4 26.9-16.5 35.5C71 411.7 60 416 48 416c-26.5 0-48-21-48-47c0-17.3 21.4-50 35.7-69.7c2.2-3 4.2-5.8 5.9-8.1c3.2-4.4 9.6-4.4 12.8 0C67.6 308.6 96 349 96 369zm239.6-97c0 17.7 14.3 32 32 32s32-14.3 32-32s-14.3-32-32-32s-32 14.3-32 32zm-128 32c17.7 0 32-14.3 32-32s-14.3-32-32-32s-32 14.3-32 32s14.3 32 32 32zm19.7-155.3c-6.2-6.2-16.4-6.2-22.6 0l-7.4 7.4c-18.9 18.9-43.2 31.4-69.5 35.7l-2.5 .4c-8.7 1.5-14.6 9.7-13.2 18.4s9.7 14.6 18.4 13.2l2.5-.4c32.9-5.5 63.3-21.1 86.8-44.7l7.4-7.4c6.2-6.2 6.2-16.4 0-22.6zm121.4 22.6l7.4 7.4c23.6 23.6 53.9 39.2 86.8 44.7l2.5 .4c8.7 1.5 17-4.4 18.4-13.2s-4.4-17-13.2-18.4l-2.5-.4c-26.3-4.4-50.6-16.9-69.5-35.7l-7.4-7.4c-6.2-6.2-16.4-6.2-22.6 0s-6.2 16.4 0 22.6zM352 402.6V448c0 35.3-28.7 64-64 64s-64-28.7-64-64V402.6c0-14.7 11.9-26.6 26.6-26.6h2c11.3 0 21.1 7.9 23.6 18.9c2.8 12.6 20.8 12.6 23.6 0c2.5-11.1 12.3-18.9 23.6-18.9h2c14.7 0 26.6 11.9 26.6 26.6z"/></symbol>
<symbol xmlns="http://www.w3.org/2000/svg" viewBox="0 0 512 512" fill="currentColor" id="status-dead"><path d="M416 398.9c58.5-41.1 96-104.1 96-174.9C512 100.3 397.4 0 256 0S0 100.3 0 224c0 70.7 37.5 133.8 96 174.9c0 .4 0 .7 0 1.1v64c0 26.5 21.5 48 48 48h48V464c0-8.8 7.2-16 16-16s16 7.2 16 16v48h64V464c0-8.8 7.2-16 16-16s16 7.2 16 16v48h48c26.5 0 48-21.5 48-48V400c0-.4 0-.7 0-1.1zM224 256c0 35.3-28.7 64-64 64s-64-28.7-64-64s28.7-64 64-64s64 28.7 64 64zm128 64c-35.3 0-64-28.7-64-64s28.7-64 64-64s64 28.7 64 64s-28.7 64-64 64z"/></symbol>
<symbol xmlns="http://www.w3.org/2000/svg" viewBox="0 0 512 512" fill="currentColor" id="status-catatonic"><path d="M256 512c141.4 0 256-114.6 256-256S397.4 0 256 0S0 114.6 0 256S114.6 512 256 512zm56.9-137.1l14.8-9.9c14.3-9.6 32.7-10.7 48.1-3l15.4 7.7c7.9 4 11.1 13.6 7.2 21.5s-13.6 11.1-21.5 7.2l-15.4-7.7c-5.1-2.6-11.3-2.2-16 1l-14.8 9.9c-16.1 10.7-37.1 10.7-53.3 0l-12.5-8.3c-5.4-3.6-12.4-3.6-17.8 0l-12.5 8.3c-16.1 10.7-37.1 10.7-53.3 0l-14.8-9.9c-4.8-3.2-10.9-3.6-16-1l-15.4 7.7c-7.9 4-17.5 .7-21.5-7.2s-.7-17.5 7.2-21.5l15.4-7.7c15.4-7.7 33.8-6.6 48.1 3l14.8 9.9c5.4 3.6 12.4 3.6 17.8 0l12.5-8.3c16.1-10.7 37.1-10.7 53.3 0l12.5 8.3c5.4 3.6 12.4 3.6 17.8 0zm-147-263.3c.3 6.6-4.9 12.2-11.5 12.5c-46.9 1.9-82.2 45-78.1 84.3l0 .3 0 .3c2 40.2 40.8 70.7 76.2 66.7l.3 0 .3 0c36.3-2 62.1-35.7 58.4-64.5l0-.3 0-.3c-2.1-29.8-31.3-51-56-47.5l-.3 0-.3 0c-25.7 2.2-42 26.2-38.9 44.5l.1 .4 0 .4c2.1 19.5 21.5 31.3 35.5 28.6l.3-.1 .3 0c15.2-2.1 22-16.3 19.9-24l-.1-.4-.1-.4c-.9-4.3-3.4-7.4-6.5-9.2c-.9-.5-1.8-.9-2.6-1.2c1.7 1.9 2.8 4.2 3 6.9c1 11.1-8.8 15.8-14.1 16.4c-6.6 .8-13.4-2.2-17.6-8.5c-5-6.8-4.4-15.6-1.8-21.8c2.9-7 8.9-13.2 17.8-16c9.2-3.3 19.4-1.3 27.5 3.3c8.3 4.9 15.5 13.4 17.9 24.8c5.8 22.8-11.9 49.5-39.5 53.6c-27.7 5.3-59.8-16.2-63.6-49.2c-5.4-33 21.9-68.7 60.3-72.1c38.2-5.2 79.6 25.8 82.9 69.3c5.4 43.3-31.5 88.2-80.6 91.2c-48.8 5.3-99.6-35.2-102.5-89.1c-5.5-53.8 41.1-108.1 101-110.5c6.6-.3 12.2 4.9 12.5 11.5zM357.6 292c46.9-1.9 82.2-45 78.1-84.3l0-.3 0-.3c-2-40.2-40.8-70.7-76.2-66.7l-.3 0-.3 0c-36.3 2-62.1 35.7-58.4 64.5l0 .3 0 .3c2.1 29.8 31.3 51 56 47.5l.3 0 .3 0c25.7-2.2 42-26.2 38.9-44.5l-.1-.4 0-.4c-2.1-19.5-21.5-31.3-35.5-28.6l-.3 .1-.3 0c-15.2 2.1-21.9 16.3-19.9 24l.1 .4 .1 .4c.9 4.3 3.4 7.4 6.5 9.2c.9 .5 1.8 .9 2.6 1.2c-1.7-1.9-2.8-4.2-3-6.9c-1-11.1 8.8-15.8 14.1-16.4c6.6-.8 13.4 2.2 17.6 8.5c5 6.8 4.4 15.6 1.8 21.8c-2.9 7-8.9 13.2-17.8 16c-9.2 3.3-19.4 1.3-27.5-3.3c-8.3-4.9-15.5-13.4-17.9-24.8c-5.8-22.8 11.9-49.5 39.5-53.6c27.7-5.3 59.8 16.2 63.6 49.2c5.4 33-21.9 68.7-60.3 72.1c-38.2 5.2-79.6-25.8-82.9-69.3c-5.4-43.3 31.5-88.2 80.6-91.2c48.8-5.3 99.6 35.2 102.5 89.1c5.5 53.8-41.1 108.1-101 110.5c-6.6 .3-12.2-4.9-12.5-11.5s4.9-12.2 11.5-12.5z"/></symbol>
<symbol xmlns="http://www.w3.org/2000/svg" viewBox="0 0 512 512" fill="currentColor" id="status-incapacitated"><path d="M256 512c141.4 0 256-114.6 256-256S397.4 0 256 0S0 114.6 0 256S114.6 512 256 512zM123.3 132.7L160 169.4l36.7-36.7c6.2-6.2 16.4-6.2 22.6 0s6.2 16.4 0 22.6L182.6 192l36.7 36.7c6.2 6.2 6.2 16.4 0 22.6s-16.4 6.2-22.6 0L160 214.6l-36.7 36.7c-6.2 6.2-16.4 6.2-22.6 0s-6.2-16.4 0-22.6L137.4 192l-36.7-36.7c-6.2-6.2-6.2-16.4 0-22.6s16.4-6.2 22.6 0zm192 0L352 169.4l36.7-36.7c6.2-6.2 16.4-6.2 22.6 0s6.2 16.4 0 22.6L374.6 192l36.7 36.7c6.2 6.2 6.2 16.4 0 22.6s-16.4 6.2-22.6 0L352 214.6l-36.7 36.7c-6.2 6.2-16.4 6.2-22.6 0s-6.2-16.4 0-22.6L329.4 192l-36.7-36.7c-6.2-6.2-6.2-16.4 0-22.6s16.4-6.2 22.6 0zM256 304c44.2 0 80 35.8 80 80c0 8.8-7.2 16-16 16H192c-8.8 0-16-7.2-16-16c0-44.2 35.8-80 80-80z"/></symbol>
<symbol xmlns="http://www.w3.org/2000/svg" viewBox="0 0 512 512" fill="currentColor" id="status-paralysed"><path d="M256 512c141.4 0 256-114.6 256-256S397.4 0 256 0S0 114.6 0 256S114.6 512 256 512zM160 336H352c8.8 0 16 7.2 16 16s-7.2 16-16 16H160c-8.8 0-16-7.2-16-16s7.2-16 16-16zM128 208c0-8.8 7.2-16 16-16h64c8.8 0 16 7.2 16 16s-7.2 16-16 16H144c-8.8 0-16-7.2-16-16zm176-16h64c8.8 0 16 7.2 16 16s-7.2 16-16 16H304c-8.8 0-16-7.2-16-16s7.2-16 16-16z"/></symbol>
<symbol xmlns="http://www.w3.org/2000/svg" viewBox="0 0 576 512" fill="currentColor" id="status-unconscious"><path d="M288 0C213.6 0 146.6 31.8 99.8 82.4c-12.5 2.5-25 5.2-37.3 8.2c-8.2 2-15.3 7.1-19.7 14.3C26.9 130.6 15 158.9 7.8 189c-2.4 10.2 .3 20.9 7.2 28.7c-2.5 2.8-4.9 5.6-7.3 8.5c-4.7 5.5-7.3 12.4-7.6 19.6C.1 249.2 0 252.6 0 256c0 31.4 5 61.7 14.4 90.1c3.8 11.6 13.9 20 26 21.7c5.6 .8 11.2 0 16.3-2C97.8 452.2 185.9 512 288 512c141.4 0 256-114.6 256-256c0-9.5-.5-18.8-1.5-28c6.1-1.1 11.9-3.9 16.5-8.3c8.3-7.9 11.8-19.6 9.2-30.7c-7.2-30.1-19.1-58.4-34.9-84.1c-3.3-5.3-8-9.5-13.5-12.1c-.6-6-2.9-11.9-6.9-16.8c-21.2-26.5-47-49.1-76.2-66.8c-6.1-3.7-13.4-5.2-20.5-4.4c-16.2 2-32.2 4.6-48.1 7.9C342.9 4.5 316 0 288 0zM219.2 98.5s0 0 0 0s0 0 0 0C241.9 96.8 264.9 96 288 96c40 0 79.3 2.5 118 7.4c2.2 .3 4.4 .6 6.6 .9c31.7 4.3 62.9 10.1 93.5 17.5c.1 .2 .2 .3 .3 .5c7.3 11.9 13.7 24.4 19 37.5c4.8 11.8 8.7 24.1 11.7 36.7c-11.9-3.6-23.9-6.9-36-10c-59.4-15.1-121.2-24-184.8-26c-.3 0-.5 0-.8 0c-9.1-.3-18.3-.4-27.5-.4c-17.1 0-34.1 .5-51 1.5c-48.2 2.8-95.4 9.6-141.2 20c-7 1.6-13.9 3.3-20.9 5c-12.1 3.1-24.1 6.4-36 10c.5-2 1-4 1.5-6c2.8-10.5 6.2-20.8 10.2-30.7c5.4-13.3 11.8-26 19.3-38c23.2-5.6 46.8-10.3 70.7-14.1c0 0 0 0 0 0c.8-.1 1.6-.3 2.5-.4c25-3.9 50.4-6.9 76.1-8.7zM50.3 226.4c41-12.2 83.3-21.3 126.6-27.1c-40.6 29.4-77 64.4-108 103.7c-8.5 10.7-16.5 21.7-24.2 33.1c-4.4-13.3-7.7-27.1-9.9-41.3C33 282.1 32 269.2 32 256c0-3 .1-6.1 .2-9.1c5.9-7 12-13.8 18.2-20.5zm126 13.6c13.5-10.8 27.6-20.9 42.1-30.4c12.7 4.2 21.9 16.2 21.9 30.4c0 17.7-14.3 32-32 32s-32-14.3-32-32zM476.2 82.4C419.3 71.1 360.6 64.9 300.6 64.1c38.3-13 78.3-22.2 119.5-27.4c13.7 8.3 26.6 17.9 38.5 28.5c6.1 5.5 11.9 11.2 17.5 17.2zm-103 315.1C356.4 382.2 330.8 368 296 368c-13.1 0-24.8 2-35.2 5.3c-8.4 2.7-17.4-2-20.1-10.5s2-17.4 10.5-20.1c13.4-4.2 28.4-6.8 44.8-6.8c44.2 0 77.2 18.3 98.8 37.9c6.5 5.9 7 16.1 1.1 22.6s-16.1 7-22.6 1.1zM368.4 208a32 32 0 1 1 0 64 32 32 0 1 1 0-64z"/></symbol>
<!-- DICE -->
<!-- MISC -->
<symbol xmlns="http://www.w3.org/2000/svg" viewBox="0 0 640 512" fill="currentColor" id="add-encounter"><path d="M4.7 4.7C8.5 .9 13.9-.7 19.1 .3C42.6 5 66.1 9.7 89.6 14.4c9.3 1.9 17.8 6.4 24.5 13.1c79.5 79.5 159 159 238.5 238.4C332.1 294.7 320 329.9 320 368c0 3.9 .1 7.8 .4 11.7c-4.5 4.5-9.1 9.1-13.6 13.6C213.7 300.2 120.6 207.2 27.5 114.2C20.8 107.5 16.2 99 14.4 89.7C9.7 66.2 5 42.6 .3 19.1C-.7 13.9 .9 8.5 4.7 4.7zM342.5 478.6c-6.1 2.7-13.1 1.4-17.8-3.3c-5.3-5.3-10.7-10.7-16-16c-6.2-6.2-6.2-16.4 0-22.6c6.2-6.2 12.4-12.4 18.6-18.6c6 20 15.4 38.6 27.6 55c-4.1 1.8-8.2 3.7-12.4 5.5zM96 329.4l50.7-50.7c28.9 28.9 57.7 57.7 86.6 86.6c-16.9 16.9-33.8 33.8-50.7 50.7l20.7 20.7c6.2 6.2 6.2 16.4 0 22.6c-5.3 5.3-10.7 10.7-16 16c-4.7 4.7-11.8 6-17.8 3.3c-20.7-9.2-41.3-18.3-62-27.5C88.8 469.8 70 488.6 51.3 507.3c-6.2 6.2-16.4 6.2-22.6 0c-8-8-16-16-24-24c-6.2-6.2-6.2-16.4 0-22.6c18.7-18.7 37.5-37.5 56.2-56.2c-9.2-20.7-18.3-41.3-27.5-62c-2.7-6.1-1.4-13.1 3.3-17.8c5.3-5.3 10.7-10.7 16-16c6.2-6.2 16.4-6.2 22.6 0c6.9 6.9 13.8 13.8 20.7 20.7zM484.5 114.1c-39.7 39.8-79.5 79.6-119.2 119.3c-28.9-28.9-57.7-57.7-86.6-86.6C318.4 107 358.1 67.3 397.8 27.5c6.7-6.7 15.2-11.3 24.5-13.1C445.8 9.7 469.4 5 492.9 .3c5.2-1 10.7 .6 14.5 4.4s5.4 9.2 4.4 14.5c-4.7 23.5-9.5 46.9-14.2 70.4c-1.9 9.3-6.4 17.8-13.1 24.5zM640 368c0 79.5-64.5 144-144 144s-144-64.5-144-144s64.5-144 144-144s144 64.5 144 144zM480 304l0 48c-16 0-32 0-48 0c-8.8 0-16 7.2-16 16s7.2 16 16 16c16 0 32 0 48 0l0 48c0 8.8 7.2 16 16 16s16-7.2 16-16c0-16 0-32 0-48c16 0 32 0 48 0c8.8 0 16-7.2 16-16s-7.2-16-16-16c-16 0-32 0-48 0c0-16 0-32 0-48c0-8.8-7.2-16-16-16s-16 7.2-16 16z"/></symbol>
<symbol xmlns="http://www.w3.org/2000/svg" viewBox="0 0 512 512" fill="currentColor" id="download"><path d="M280 24c0-13.3-10.7-24-24-24s-24 10.7-24 24V294.1l-95-95c-9.4-9.4-24.6-9.4-33.9 0s-9.4 24.6 0 33.9L239 369c9.4 9.4 24.6 9.4 33.9 0L409 233c9.4-9.4 9.4-24.6 0-33.9s-24.6-9.4-33.9 0l-95 95V24zM128.8 304H64c-35.3 0-64 28.7-64 64v80c0 35.3 28.7 64 64 64H448c35.3 0 64-28.7 64-64V368c0-35.3-28.7-64-64-64H383.2l-48 48H448c8.8 0 16 7.2 16 16v80c0 8.8-7.2 16-16 16H64c-8.8 0-16-7.2-16-16V368c0-8.8 7.2-16 16-16H176.8l-48-48zM432 408a24 24 0 1 0 -48 0 24 24 0 1 0 48 0z"/></symbol>
<symbol xmlns="http://www.w3.org/2000/svg" viewBox="0 0 512 512" fill="currentColor" id="upload"><path d="M280 360c0 13.3-10.7 24-24 24s-24-10.7-24-24V81.9l-95 95c-9.4 9.4-24.6 9.4-33.9 0s-9.4-24.6 0-33.9L239 7c9.4-9.4 24.6-9.4 33.9 0L409 143c9.4 9.4 9.4 24.6 0 33.9s-24.6 9.4-33.9 0l-95-95V360zm32-8V304H448c35.3 0 64 28.7 64 64v80c0 35.3-28.7 64-64 64H64c-35.3 0-64-28.7-64-64V368c0-35.3 28.7-64 64-64H200v48H64c-8.8 0-16 7.2-16 16v80c0 8.8 7.2 16 16 16H448c8.8 0 16-7.2 16-16V368c0-8.8-7.2-16-16-16H312zm72 56a24 24 0 1 1 48 0 24 24 0 1 1 -48 0z"/></symbol>
<symbol xmlns="http://www.w3.org/2000/svg" viewBox="0 0 448 512" fill="currentColor" id="up"><path d="M201.4 105.4c12.5-12.5 32.8-12.5 45.3 0l192 192c12.5 12.5 12.5 32.8 0 45.3s-32.8 12.5-45.3 0L224 173.3 54.6 342.6c-12.5 12.5-32.8 12.5-45.3 0s-12.5-32.8 0-45.3l192-192z"/></symbol>
<symbol xmlns="http://www.w3.org/2000/svg" viewBox="0 0 448 512" fill="currentColor" id="down"><path d="M201.4 406.6c12.5 12.5 32.8 12.5 45.3 0l192-192c12.5-12.5 12.5-32.8 0-45.3s-32.8-12.5-45.3 0L224 338.7 54.6 169.4c-12.5-12.5-32.8-12.5-45.3 0s-12.5 32.8 0 45.3l192 192z"/></symbol>
<symbol xmlns="http://www.w3.org/2000/svg" viewBox="0 0 512 512" fill="currentColor" id="cog"><path d="M194 0H306l17.2 78.4c15.8 6.5 30.6 15.1 44 25.4l76.5-24.4 56 97-59.4 54.1c1.1 8.3 1.7 16.8 1.7 25.4s-.6 17.1-1.7 25.4l59.4 54.1-56 97-76.5-24.4c-13.4 10.3-28.2 18.9-44 25.4L306 512H194l-17.2-78.4c-15.8-6.5-30.6-15.1-44-25.4L56.3 432.5l-56-97 59.4-54.1C58.6 273.1 58 264.6 58 256s.6-17.1 1.7-25.4L.3 176.5l56-97 76.5 24.4c13.4-10.3 28.2-18.9 44-25.4L194 0zm56 336a80 80 0 1 0 0-160 80 80 0 1 0 0 160z"/></symbol>
<symbol xmlns="http://www.w3.org/2000/svg" viewBox="0 0 448 512" fill="currentColor" id="bars"><path d="M0 88C0 74.7 10.7 64 24 64H424c13.3 0 24 10.7 24 24s-10.7 24-24 24H24C10.7 112 0 101.3 0 88zM0 248c0-13.3 10.7-24 24-24H424c13.3 0 24 10.7 24 24s-10.7 24-24 24H24c-13.3 0-24-10.7-24-24zM448 408c0 13.3-10.7 24-24 24H24c-13.3 0-24-10.7-24-24s10.7-24 24-24H424c13.3 0 24 10.7 24 24z"/></symbol>
<symbol xmlns="http://www.w3.org/2000/svg" viewBox="0 0 512 512" fill="currentColor" id="heart"><path d="M47.6 300.4L228.3 469.1c7.5 7 17.4 10.9 27.7 10.9s20.2-3.9 27.7-10.9L464.4 300.4c30.4-28.3 47.6-68 47.6-109.5v-5.8c0-69.9-50.5-129.5-119.4-141C347 36.5 300.6 51.4 268 84L256 96 244 84c-32.6-32.6-79-47.5-124.6-39.9C50.5 55.6 0 115.2 0 185.1v5.8c0 41.5 17.2 81.2 47.6 109.5z"/></symbol>
<symbol xmlns="http://www.w3.org/2000/svg" viewBox="0 0 236 242" fill="currentColor" id="ttrpgtools"><path d="M91.535-.023h52.927l8.128 37.056a90.951 90.951 0 0 1 20.793 12.006l36.151-11.534 26.464 45.848-28.07 25.571c.52 3.922.803 7.94.803 12.006 0 4.064-.283 8.082-.803 12.004l28.07 25.571-26.464 45.848-36.15-11.533a90.951 90.951 0 0 1-20.794 12.005l-8.128 37.151H91.535l-8.129-37.057a90.904 90.904 0 0 1-20.792-12.004L26.463 204.4-.001 158.552l28.07-25.57a91.636 91.636 0 0 1-.803-12.006c0-4.065.284-8.082.803-12.005L-.001 83.4l26.464-45.848 36.151 11.533a90.87 90.87 0 0 1 20.792-12.005L91.535-.023ZM57.309 92.511v46.764l21.317-33.992L57.31 92.511Zm60.69-34.752L91.041 100.73h53.913l-26.957-42.97Zm0 95.503 25.388-44.438H92.61l25.388 44.463v-.025Zm33.429-42.212-28.372 49.673 55-7.233-26.628-42.44Zm-66.885 0-26.602 42.44 55 7.233-28.372-49.673h-.026Zm37.501 74.662 56.163-24.078-56.163 7.385v16.693Zm56.644-46.437V92.511l-21.317 12.772 21.317 33.992Zm-69.566-82.603-48.83 28.175L82.926 98.43l26.197-41.757ZM57.79 161.634l56.163 24.078v-16.693l-56.163-7.385Zm117.915-76.787-48.83-28.175 26.198 41.757 22.632-13.582Z"/></symbol>
<symbol xmlns="http://www.w3.org/2000/svg" viewBox="0 0 640 512" fill="currentColor" id="discord"><path d="M524.531,69.836a1.5,1.5,0,0,0-.764-.7A485.065,485.065,0,0,0,404.081,32.03a1.816,1.816,0,0,0-1.923.91,337.461,337.461,0,0,0-14.9,30.6,447.848,447.848,0,0,0-134.426,0,309.541,309.541,0,0,0-15.135-30.6,1.89,1.89,0,0,0-1.924-.91A483.689,483.689,0,0,0,116.085,69.137a1.712,1.712,0,0,0-.788.676C39.068,183.651,18.186,294.69,28.43,404.354a2.016,2.016,0,0,0,.765,1.375A487.666,487.666,0,0,0,176.02,479.918a1.9,1.9,0,0,0,2.063-.676A348.2,348.2,0,0,0,208.12,430.4a1.86,1.86,0,0,0-1.019-2.588,321.173,321.173,0,0,1-45.868-21.853,1.885,1.885,0,0,1-.185-3.126c3.082-2.309,6.166-4.711,9.109-7.137a1.819,1.819,0,0,1,1.9-.256c96.229,43.917,200.41,43.917,295.5,0a1.812,1.812,0,0,1,1.924.233c2.944,2.426,6.027,4.851,9.132,7.16a1.884,1.884,0,0,1-.162,3.126,301.407,301.407,0,0,1-45.89,21.83,1.875,1.875,0,0,0-1,2.611,391.055,391.055,0,0,0,30.014,48.815,1.864,1.864,0,0,0,2.063.7A486.048,486.048,0,0,0,610.7,405.729a1.882,1.882,0,0,0,.765-1.352C623.729,277.594,590.933,167.465,524.531,69.836ZM222.491,337.58c-28.972,0-52.844-26.587-52.844-59.239S193.056,219.1,222.491,219.1c29.665,0,53.306,26.82,52.843,59.239C275.334,310.993,251.924,337.58,222.491,337.58Zm195.38,0c-28.971,0-52.843-26.587-52.843-59.239S388.437,219.1,417.871,219.1c29.667,0,53.307,26.82,52.844,59.239C470.715,310.993,447.538,337.58,417.871,337.58Z"/></symbol>
<symbol xmlns="http://www.w3.org/2000/svg" viewBox="0 0 576 512" fill="currentColor" id="broadcast"><path d="M99.8 69.4c10.2 8.4 11.6 23.6 3.2 33.8C68.6 144.7 48 197.9 48 256s20.6 111.3 55 152.8c8.4 10.2 7 25.3-3.2 33.8s-25.3 7-33.8-3.2C24.8 389.6 0 325.7 0 256S24.8 122.4 66 72.6c8.4-10.2 23.6-11.6 33.8-3.2zm376.5 0c10.2-8.4 25.3-7 33.8 3.2c41.2 49.8 66 113.8 66 183.4s-24.8 133.6-66 183.4c-8.4 10.2-23.6 11.6-33.8 3.2s-11.6-23.6-3.2-33.8c34.3-41.5 55-94.7 55-152.8s-20.6-111.3-55-152.8c-8.4-10.2-7-25.3 3.2-33.8zM248 256a40 40 0 1 1 80 0 40 40 0 1 1 -80 0zm-61.1-78.5C170 199.2 160 226.4 160 256s10 56.8 26.9 78.5c8.1 10.5 6.3 25.5-4.2 33.7s-25.5 6.3-33.7-4.2c-23.2-29.8-37-67.3-37-108s13.8-78.2 37-108c8.1-10.5 23.2-12.3 33.7-4.2s12.3 23.2 4.2 33.7zM427 148c23.2 29.8 37 67.3 37 108s-13.8 78.2-37 108c-8.1 10.5-23.2 12.3-33.7 4.2s-12.3-23.2-4.2-33.7C406 312.8 416 285.6 416 256s-10-56.8-26.9-78.5c-8.1-10.5-6.3-25.5 4.2-33.7s25.5-6.3 33.7 4.2z"/></symbol>
<symbol xmlns="http://www.w3.org/2000/svg" viewBox="0 0 384 512" fill="currentColor" id="moon"><path d="M223.5 32C100 32 0 132.3 0 256S100 480 223.5 480c60.6 0 115.5-24.2 155.8-63.4c5-4.9 6.3-12.5 3.1-18.7s-10.1-9.7-17-8.5c-9.8 1.7-19.8 2.6-30.1 2.6c-96.9 0-175.5-78.8-175.5-176c0-65.8 36-123.1 89.3-153.3c6.1-3.5 9.2-10.5 7.7-17.3s-7.3-11.9-14.3-12.5c-6.3-.5-12.6-.8-19-.8z"/></symbol>
<symbol xmlns="http://www.w3.org/2000/svg" viewBox="0 0 512 512" fill="currentColor" id="sun"><path d="M256 0c-13.3 0-24 10.7-24 24V88c0 13.3 10.7 24 24 24s24-10.7 24-24V24c0-13.3-10.7-24-24-24zm0 400c-13.3 0-24 10.7-24 24v64c0 13.3 10.7 24 24 24s24-10.7 24-24V424c0-13.3-10.7-24-24-24zM488 280c13.3 0 24-10.7 24-24s-10.7-24-24-24H424c-13.3 0-24 10.7-24 24s10.7 24 24 24h64zM112 256c0-13.3-10.7-24-24-24H24c-13.3 0-24 10.7-24 24s10.7 24 24 24H88c13.3 0 24-10.7 24-24zM437 108.9c9.4-9.4 9.4-24.6 0-33.9s-24.6-9.4-33.9 0l-45.3 45.3c-9.4 9.4-9.4 24.6 0 33.9s24.6 9.4 33.9 0L437 108.9zM154.2 357.8c-9.4-9.4-24.6-9.4-33.9 0L75 403.1c-9.4 9.4-9.4 24.6 0 33.9s24.6 9.4 33.9 0l45.3-45.3c9.4-9.4 9.4-24.6 0-33.9zM403.1 437c9.4 9.4 24.6 9.4 33.9 0s9.4-24.6 0-33.9l-45.3-45.3c-9.4-9.4-24.6-9.4-33.9 0s-9.4 24.6 0 33.9L403.1 437zM154.2 154.2c9.4-9.4 9.4-24.6 0-33.9L108.9 75c-9.4-9.4-24.6-9.4-33.9 0s-9.4 24.6 0 33.9l45.3 45.3c9.4 9.4 24.6 9.4 33.9 0zM256 368a112 112 0 1 0 0-224 112 112 0 1 0 0 224z"/></symbol>
<symbol xmlns="http://www.w3.org/2000/svg" viewBox="0 0 576 512" fill="currentColor" id="desktop"><path d="M64 0C28.7 0 0 28.7 0 64V352c0 35.3 28.7 64 64 64H240l-10.7 32H160c-17.7 0-32 14.3-32 32s14.3 32 32 32H416c17.7 0 32-14.3 32-32s-14.3-32-32-32H346.7L336 416H512c35.3 0 64-28.7 64-64V64c0-35.3-28.7-64-64-64H64zM512 64V288H64V64H512z"/></symbol>
<symbol xmlns="http://www.w3.org/2000/svg" viewBox="0 0 384 512" fill="currentColor" id="mobile"><path d="M80 48c-8.8 0-16 7.2-16 16V448c0 8.8 7.2 16 16 16H304c8.8 0 16-7.2 16-16V64c0-8.8-7.2-16-16-16H80zM16 64C16 28.7 44.7 0 80 0H304c35.3 0 64 28.7 64 64V448c0 35.3-28.7 64-64 64H80c-35.3 0-64-28.7-64-64V64zM160 400h64c8.8 0 16 7.2 16 16s-7.2 16-16 16H160c-8.8 0-16-7.2-16-16s7.2-16 16-16z"/></symbol>
<symbol xmlns="http://www.w3.org/2000/svg" viewBox="0 0 256 512" fill="currentColor" id="grip-v"><path d="M48 144a48 48 0 1 0 0-96 48 48 0 1 0 0 96zm0 160a48 48 0 1 0 0-96 48 48 0 1 0 0 96zM96 416A48 48 0 1 0 0 416a48 48 0 1 0 96 0zM208 144a48 48 0 1 0 0-96 48 48 0 1 0 0 96zm48 112a48 48 0 1 0 -96 0 48 48 0 1 0 96 0zM208 464a48 48 0 1 0 0-96 48 48 0 1 0 0 96z"/></symbol>
<symbol xmlns="http://www.w3.org/2000/svg" viewBox="0 0 640 512" fill="currentColor" id="edit-order"><path d="M0 88C0 74.7 10.7 64 24 64c133.4 0 266.7 0 400 0c13.3 0 24 10.7 24 24s-10.7 24-24 24c-133.4 0-266.7 0-400 0C10.7 112 0 101.3 0 88zM0 248c0-13.3 10.7-24 24-24c90.7 0 181.3 0 272 0c13.3 0 24 10.7 24 24s-10.7 24-24 24c-90.7 0-181.3 0-272 0c-13.3 0-24-10.7-24-24zM192 408c0 13.3-10.7 24-24 24c-48 0-96 0-144 0c-13.3 0-24-10.7-24-24s10.7-24 24-24c48 0 96 0 144 0c13.3 0 24 10.7 24 24zM558.2 235.9l-29.4 29.4c23.6 23.6 47.3 47.3 70.9 70.9c9.8-9.8 19.6-19.6 29.4-29.4c15.6-15.6 15.6-40.9 0-56.6c-4.8-4.8-9.5-9.5-14.3-14.3c-15.6-15.6-40.9-15.6-56.6 0zm-52 52L376.9 417.1c-4.1 4.1-7 9.2-8.4 14.9c-5 20-10 40.1-15 60.1c-1.4 5.5 .2 11.2 4.2 15.2s9.7 5.6 15.2 4.2c20-5 40.1-10 60.1-15c5.6-1.4 10.8-4.3 14.9-8.4C491 445 534 402 577.1 358.9c-23.7-23.7-47.3-47.3-71-71c.1 0 0 0 .1 0z"/></symbol>
<symbol xmlns="http://www.w3.org/2000/svg" viewBox="0 0 640 512" fill="currentColor" id="no-magic"><path d="M192 0c-38.9 0-72.5 23.2-87.5 56.6C82.6 39.4 60.7 22.3 38.8 5.1C28.4-3.1 13.3-1.2 5.1 9.2S-1.2 34.7 9.2 42.9c197.3 154.7 394.6 309.3 592 464c10.4 8.2 25.5 6.3 33.7-4.1s6.3-25.5-4.1-33.7c-36.7-28.8-73.4-57.5-110.1-86.3C534.2 379 544 366.7 544 352c0-106.7 0-213.3 0-320c0-17.7-14.3-32-32-32L480 0C384 0 288 0 192 0zM96 416c0 53 43 96 96 96c96 0 192 0 288 0c10.7 0 21.3 0 32 0c4.5 0 8.8-.9 12.7-2.6c-26-20.5-51.9-40.9-77.9-61.4c-84.9 0-169.9 0-254.8 0c-17.7 0-32-14.3-32-32s14.3-32 32-32c57.9 0 115.7 0 173.5 0C275.7 313.2 185.8 242.4 96 171.6c0 81.5 0 162.9 0 244.4zM360 200l16.6-38.8c2.8-6.5 11.9-6.5 14.7 0c5.6 12.9 11.1 25.9 16.7 38.8c12.9 5.5 25.9 11.1 38.8 16.6c6.5 2.8 6.5 11.9 0 14.7c-12.9 5.6-25.9 11.1-38.8 16.7c-5 11.6-9.9 23.2-14.9 34.8c-9.1-7.1-18.2-14.3-27.4-21.4c-1.9-4.5-3.8-8.9-5.7-13.4c-8.3-3.5-16.6-7.1-24.9-10.6c-6.2-4.9-12.5-9.8-18.7-14.7c.4-2.5 2-4.8 4.8-6c12.9-5.6 25.9-11.1 38.8-16.7zM264.8 78.3c2.9-5.9 11.4-5.9 14.3 0c3 5.9 5.9 11.8 8.9 17.7c5.9 2.9 11.8 5.9 17.7 8.8c5.9 2.9 5.9 11.4 0 14.3c-5.9 3-11.8 5.9-17.7 8.9c-2.9 5.9-5.9 11.8-8.8 17.7c-2.9 5.9-11.4 5.9-14.3 0c-3-5.9-5.9-11.8-8.9-17.7c-5.9-2.9-11.8-5.9-17.7-8.8c-5.9-2.9-5.9-11.4 0-14.3c5.9-3 11.8-5.9 17.7-8.9c2.9-5.9 5.9-11.8 8.8-17.7z"/></symbol>
<symbol xmlns="http://www.w3.org/2000/svg" viewBox="0 0 576 512" fill="currentColor" id="cast-magic"><path d="M192 80c0 8.8 7.2 16 16 16h80c17.7 0 32 14.3 32 32s-14.3 32-32 32H208c-44.2 0-80-35.8-80-80s35.8-80 80-80H320c70.7 0 128 57.3 128 128s-57.3 128-128 128H288c0 17.7-14.3 32-32 32s-32-14.3-32-32V224c0-17.7 14.3-32 32-32h64c35.3 0 64-28.7 64-64s-28.7-64-64-64H208c-8.8 0-16 7.2-16 16zM568.2 336.3c13.1 17.8 9.3 42.8-8.5 55.9L433.1 485.5c-23.4 17.2-51.6 26.5-80.7 26.5H192 32c-17.7 0-32-14.3-32-32V416c0-17.7 14.3-32 32-32H68.8l44.9-36c22.7-18.2 50.9-28 80-28H272h16 64c17.7 0 32 14.3 32 32s-14.3 32-32 32H288 272c-8.8 0-16 7.2-16 16s7.2 16 16 16H392.6l119.7-88.2c17.8-13.1 42.8-9.3 55.9 8.5zM193.6 384l0 0-.9 0c.3 0 .6 0 .9 0z"/></symbol>
<symbol xmlns="http://www.w3.org/2000/svg" viewBox="0 0 448 512" fill="currentColor" id="share"><path d="M352 224c53 0 96-43 96-96s-43-96-96-96s-96 43-96 96c0 4 .2 8 .7 11.9l-94.1 47C145.4 170.2 121.9 160 96 160c-53 0-96 43-96 96s43 96 96 96c25.9 0 49.4-10.2 66.6-26.9l94.1 47c-.5 3.9-.7 7.8-.7 11.9c0 53 43 96 96 96s96-43 96-96s-43-96-96-96c-25.9 0-49.4 10.2-66.6 26.9l-94.1-47c.5-3.9 .7-7.8 .7-11.9s-.2-8-.7-11.9l94.1-47C302.6 213.8 326.1 224 352 224z"/></symbol>
</svg>