<svg xmlns="http://www.w3.org/2000/svg">
<!-- STATUSES -->
<symbol xmlns="http://www.w3.org/2000/svg" viewBox="0 0 576 512" fill="currentColor" id="status-deprived"><path d="M544 256c0 112.9-73.1 208.7-174.5 242.8C378.7 484 384 466.6 384 448V416.7c10.2-7.2 16-15.7 16-24.7c0-26.5-50.1-48-112-48s-112 21.5-112 48c0 9 5.8 17.5 16 24.7V448c0 18.6 5.3 36 14.5 50.8c-41.3-13.9-78-38-106.9-69.4C116.9 415 128 393.5 128 369c0-11.4-3.8-22.4-7.1-30.5c-3.7-8.7-8.4-17.6-13.2-25.7C98.1 296.7 87 281.3 80 272.1c-11.6-15.6-31.7-19.9-48-12.8c0-1.1 0-2.2 0-3.3C32 114.6 146.6 0 288 0S544 114.6 544 256zM96 369c0 14.2-6.4 26.9-16.5 35.5C71 411.7 60 416 48 416c-26.5 0-48-21-48-47c0-17.3 21.4-50 35.7-69.7c2.2-3 4.2-5.8 5.9-8.1c3.2-4.4 9.6-4.4 12.8 0C67.6 308.6 96 349 96 369zm239.6-97c0 17.7 14.3 32 32 32s32-14.3 32-32s-14.3-32-32-32s-32 14.3-32 32zm-128 32c17.7 0 32-14.3 32-32s-14.3-32-32-32s-32 14.3-32 32s14.3 32 32 32zm19.7-155.3c-6.2-6.2-16.4-6.2-22.6 0l-7.4 7.4c-18.9 18.9-43.2 31.4-69.5 35.7l-2.5 .4c-8.7 1.5-14.6 9.7-13.2 18.4s9.7 14.6 18.4 13.2l2.5-.4c32.9-5.5 63.3-21.1 86.8-44.7l7.4-7.4c6.2-6.2 6.2-16.4 0-22.6zm121.4 22.6l7.4 7.4c23.6 23.6 53.9 39.2 86.8 44.7l2.5 .4c8.7 1.5 17-4.4 18.4-13.2s-4.4-17-13.2-18.4l-2.5-.4c-26.3-4.4-50.6-16.9-69.5-35.7l-7.4-7.4c-6.2-6.2-16.4-6.2-22.6 0s-6.2 16.4 0 22.6zM352 402.6V448c0 35.3-28.7 64-64 64s-64-28.7-64-64V402.6c0-14.7 11.9-26.6 26.6-26.6h2c11.3 0 21.1 7.9 23.6 18.9c2.8 12.6 20.8 12.6 23.6 0c2.5-11.1 12.3-18.9 23.6-18.9h2c14.7 0 26.6 11.9 26.6 26.6z"/></symbol>
<symbol xmlns="http://www.w3.org/2000/svg" viewBox="0 0 512 512" fill="currentColor" id="status-dead"><path d="M416 398.9c58.5-41.1 96-104.1 96-174.9C512 100.3 397.4 0 256 0S0 100.3 0 224c0 70.7 37.5 133.8 96 174.9c0 .4 0 .7 0 1.1v64c0 26.5 21.5 48 48 48h48V464c0-8.8 7.2-16 16-16s16 7.2 16 16v48h64V464c0-8.8 7.2-16 16-16s16 7.2 16 16v48h48c26.5 0 48-21.5 48-48V400c0-.4 0-.7 0-1.1zM224 256c0 35.3-28.7 64-64 64s-64-28.7-64-64s28.7-64 64-64s64 28.7 64 64zm128 64c-35.3 0-64-28.7-64-64s28.7-64 64-64s64 28.7 64 64s-28.7 64-64 64z"/></symbol>
<symbol xmlns="http://www.w3.org/2000/svg" viewBox="0 0 512 512" fill="currentColor" id="status-catatonic"><path d="M256 512c141.4 0 256-114.6 256-256S397.4 0 256 0S0 114.6 0 256S114.6 512 256 512zm56.9-137.1l14.8-9.9c14.3-9.6 32.7-10.7 48.1-3l15.4 7.7c7.9 4 11.1 13.6 7.2 21.5s-13.6 11.1-21.5 7.2l-15.4-7.7c-5.1-2.6-11.3-2.2-16 1l-14.8 9.9c-16.1 10.7-37.1 10.7-53.3 0l-12.5-8.3c-5.4-3.6-12.4-3.6-17.8 0l-12.5 8.3c-16.1 10.7-37.1 10.7-53.3 0l-14.8-9.9c-4.8-3.2-10.9-3.6-16-1l-15.4 7.7c-7.9 4-17.5 .7-21.5-7.2s-.7-17.5 7.2-21.5l15.4-7.7c15.4-7.7 33.8-6.6 48.1 3l14.8 9.9c5.4 3.6 12.4 3.6 17.8 0l12.5-8.3c16.1-10.7 37.1-10.7 53.3 0l12.5 8.3c5.4 3.6 12.4 3.6 17.8 0zm-147-263.3c.3 6.6-4.9 12.2-11.5 12.5c-46.9 1.9-82.2 45-78.1 84.3l0 .3 0 .3c2 40.2 40.8 70.7 76.2 66.7l.3 0 .3 0c36.3-2 62.1-35.7 58.4-64.5l0-.3 0-.3c-2.1-29.8-31.3-51-56-47.5l-.3 0-.3 0c-25.7 2.2-42 26.2-38.9 44.5l.1 .4 0 .4c2.1 19.5 21.5 31.3 35.5 28.6l.3-.1 .3 0c15.2-2.1 22-16.3 19.9-24l-.1-.4-.1-.4c-.9-4.3-3.4-7.4-6.5-9.2c-.9-.5-1.8-.9-2.6-1.2c1.7 1.9 2.8 4.2 3 6.9c1 11.1-8.8 15.8-14.1 16.4c-6.6 .8-13.4-2.2-17.6-8.5c-5-6.8-4.4-15.6-1.8-21.8c2.9-7 8.9-13.2 17.8-16c9.2-3.3 19.4-1.3 27.5 3.3c8.3 4.9 15.5 13.4 17.9 24.8c5.8 22.8-11.9 49.5-39.5 53.6c-27.7 5.3-59.8-16.2-63.6-49.2c-5.4-33 21.9-68.7 60.3-72.1c38.2-5.2 79.6 25.8 82.9 69.3c5.4 43.3-31.5 88.2-80.6 91.2c-48.8 5.3-99.6-35.2-102.5-89.1c-5.5-53.8 41.1-108.1 101-110.5c6.6-.3 12.2 4.9 12.5 11.5zM357.6 292c46.9-1.9 82.2-45 78.1-84.3l0-.3 0-.3c-2-40.2-40.8-70.7-76.2-66.7l-.3 0-.3 0c-36.3 2-62.1 35.7-58.4 64.5l0 .3 0 .3c2.1 29.8 31.3 51 56 47.5l.3 0 .3 0c25.7-2.2 42-26.2 38.9-44.5l-.1-.4 0-.4c-2.1-19.5-21.5-31.3-35.5-28.6l-.3 .1-.3 0c-15.2 2.1-21.9 16.3-19.9 24l.1 .4 .1 .4c.9 4.3 3.4 7.4 6.5 9.2c.9 .5 1.8 .9 2.6 1.2c-1.7-1.9-2.8-4.2-3-6.9c-1-11.1 8.8-15.8 14.1-16.4c6.6-.8 13.4 2.2 17.6 8.5c5 6.8 4.4 15.6 1.8 21.8c-2.9 7-8.9 13.2-17.8 16c-9.2 3.3-19.4 1.3-27.5-3.3c-8.3-4.9-15.5-13.4-17.9-24.8c-5.8-22.8 11.9-49.5 39.5-53.6c27.7-5.3 59.8 16.2 63.6 49.2c5.4 33-21.9 68.7-60.3 72.1c-38.2 5.2-79.6-25.8-82.9-69.3c-5.4-43.3 31.5-88.2 80.6-91.2c48.8-5.3 99.6 35.2 102.5 89.1c5.5 53.8-41.1 108.1-101 110.5c-6.6 .3-12.2-4.9-12.5-11.5s4.9-12.2 11.5-12.5z"/></symbol>
<symbol xmlns="http://www.w3.org/2000/svg" viewBox="0 0 512 512" fill="currentColor" id="status-incapacitated"><path d="M256 512c141.4 0 256-114.6 256-256S397.4 0 256 0S0 114.6 0 256S114.6 512 256 512zM123.3 132.7L160 169.4l36.7-36.7c6.2-6.2 16.4-6.2 22.6 0s6.2 16.4 0 22.6L182.6 192l36.7 36.7c6.2 6.2 6.2 16.4 0 22.6s-16.4 6.2-22.6 0L160 214.6l-36.7 36.7c-6.2 6.2-16.4 6.2-22.6 0s-6.2-16.4 0-22.6L137.4 192l-36.7-36.7c-6.2-6.2-6.2-16.4 0-22.6s16.4-6.2 22.6 0zm192 0L352 169.4l36.7-36.7c6.2-6.2 16.4-6.2 22.6 0s6.2 16.4 0 22.6L374.6 192l36.7 36.7c6.2 6.2 6.2 16.4 0 22.6s-16.4 6.2-22.6 0L352 214.6l-36.7 36.7c-6.2 6.2-16.4 6.2-22.6 0s-6.2-16.4 0-22.6L329.4 192l-36.7-36.7c-6.2-6.2-6.2-16.4 0-22.6s16.4-6.2 22.6 0zM256 304c44.2 0 80 35.8 80 80c0 8.8-7.2 16-16 16H192c-8.8 0-16-7.2-16-16c0-44.2 35.8-80 80-80z"/></symbol>
<symbol xmlns="http://www.w3.org/2000/svg" viewBox="0 0 512 512" fill="currentColor" id="status-paralysed"><path d="M256 512c141.4 0 256-114.6 256-256S397.4 0 256 0S0 114.6 0 256S114.6 512 256 512zM160 336H352c8.8 0 16 7.2 16 16s-7.2 16-16 16H160c-8.8 0-16-7.2-16-16s7.2-16 16-16zM128 208c0-8.8 7.2-16 16-16h64c8.8 0 16 7.2 16 16s-7.2 16-16 16H144c-8.8 0-16-7.2-16-16zm176-16h64c8.8 0 16 7.2 16 16s-7.2 16-16 16H304c-8.8 0-16-7.2-16-16s7.2-16 16-16z"/></symbol>
<!-- DICE -->
<!-- MISC -->
<symbol xmlns="http://www.w3.org/2000/svg" viewBox="0 0 512 512" fill="currentColor" id="download"><path d="M280 24c0-13.3-10.7-24-24-24s-24 10.7-24 24V294.1l-95-95c-9.4-9.4-24.6-9.4-33.9 0s-9.4 24.6 0 33.9L239 369c9.4 9.4 24.6 9.4 33.9 0L409 233c9.4-9.4 9.4-24.6 0-33.9s-24.6-9.4-33.9 0l-95 95V24zM128.8 304H64c-35.3 0-64 28.7-64 64v80c0 35.3 28.7 64 64 64H448c35.3 0 64-28.7 64-64V368c0-35.3-28.7-64-64-64H383.2l-48 48H448c8.8 0 16 7.2 16 16v80c0 8.8-7.2 16-16 16H64c-8.8 0-16-7.2-16-16V368c0-8.8 7.2-16 16-16H176.8l-48-48zM432 408a24 24 0 1 0 -48 0 24 24 0 1 0 48 0z"/></symbol>
<symbol xmlns="http://www.w3.org/2000/svg" viewBox="0 0 512 512" fill="currentColor" id="upload"><path d="M280 360c0 13.3-10.7 24-24 24s-24-10.7-24-24V81.9l-95 95c-9.4 9.4-24.6 9.4-33.9 0s-9.4-24.6 0-33.9L239 7c9.4-9.4 24.6-9.4 33.9 0L409 143c9.4 9.4 9.4 24.6 0 33.9s-24.6 9.4-33.9 0l-95-95V360zm32-8V304H448c35.3 0 64 28.7 64 64v80c0 35.3-28.7 64-64 64H64c-35.3 0-64-28.7-64-64V368c0-35.3 28.7-64 64-64H200v48H64c-8.8 0-16 7.2-16 16v80c0 8.8 7.2 16 16 16H448c8.8 0 16-7.2 16-16V368c0-8.8-7.2-16-16-16H312zm72 56a24 24 0 1 1 48 0 24 24 0 1 1 -48 0z"/></symbol>
<symbol xmlns="http://www.w3.org/2000/svg" viewBox="0 0 448 512" fill="currentColor" id="up"><path d="M201.4 105.4c12.5-12.5 32.8-12.5 45.3 0l192 192c12.5 12.5 12.5 32.8 0 45.3s-32.8 12.5-45.3 0L224 173.3 54.6 342.6c-12.5 12.5-32.8 12.5-45.3 0s-12.5-32.8 0-45.3l192-192z"/></symbol>
<symbol xmlns="http://www.w3.org/2000/svg" viewBox="0 0 448 512" fill="currentColor" id="down"><path d="M201.4 406.6c12.5 12.5 32.8 12.5 45.3 0l192-192c12.5-12.5 12.5-32.8 0-45.3s-32.8-12.5-45.3 0L224 338.7 54.6 169.4c-12.5-12.5-32.8-12.5-45.3 0s-12.5 32.8 0 45.3l192 192z"/></symbol>
<symbol xmlns="http://www.w3.org/2000/svg" viewBox="0 0 512 512" fill="currentColor" id="cog"><path d="M194 0H306l17.2 78.4c15.8 6.5 30.6 15.1 44 25.4l76.5-24.4 56 97-59.4 54.1c1.1 8.3 1.7 16.8 1.7 25.4s-.6 17.1-1.7 25.4l59.4 54.1-56 97-76.5-24.4c-13.4 10.3-28.2 18.9-44 25.4L306 512H194l-17.2-78.4c-15.8-6.5-30.6-15.1-44-25.4L56.3 432.5l-56-97 59.4-54.1C58.6 273.1 58 264.6 58 256s.6-17.1 1.7-25.4L.3 176.5l56-97 76.5 24.4c13.4-10.3 28.2-18.9 44-25.4L194 0zm56 336a80 80 0 1 0 0-160 80 80 0 1 0 0 160z"/></symbol>
<symbol xmlns="http://www.w3.org/2000/svg" viewBox="0 0 512 512" fill="currentColor" id="heart"><path d="M47.6 300.4L228.3 469.1c7.5 7 17.4 10.9 27.7 10.9s20.2-3.9 27.7-10.9L464.4 300.4c30.4-28.3 47.6-68 47.6-109.5v-5.8c0-69.9-50.5-129.5-119.4-141C347 36.5 300.6 51.4 268 84L256 96 244 84c-32.6-32.6-79-47.5-124.6-39.9C50.5 55.6 0 115.2 0 185.1v5.8c0 41.5 17.2 81.2 47.6 109.5z"/></symbol>
<symbol xmlns="http://www.w3.org/2000/svg" viewBox="0 0 236 242" fill="currentColor" id="ttrpgtools"><path d="M91.535-.023h52.927l8.128 37.056a90.951 90.951 0 0 1 20.793 12.006l36.151-11.534 26.464 45.848-28.07 25.571c.52 3.922.803 7.94.803 12.006 0 4.064-.283 8.082-.803 12.004l28.07 25.571-26.464 45.848-36.15-11.533a90.951 90.951 0 0 1-20.794 12.005l-8.128 37.151H91.535l-8.129-37.057a90.904 90.904 0 0 1-20.792-12.004L26.463 204.4-.001 158.552l28.07-25.57a91.636 91.636 0 0 1-.803-12.006c0-4.065.284-8.082.803-12.005L-.001 83.4l26.464-45.848 36.151 11.533a90.87 90.87 0 0 1 20.792-12.005L91.535-.023ZM57.309 92.511v46.764l21.317-33.992L57.31 92.511Zm60.69-34.752L91.041 100.73h53.913l-26.957-42.97Zm0 95.503 25.388-44.438H92.61l25.388 44.463v-.025Zm33.429-42.212-28.372 49.673 55-7.233-26.628-42.44Zm-66.885 0-26.602 42.44 55 7.233-28.372-49.673h-.026Zm37.501 74.662 56.163-24.078-56.163 7.385v16.693Zm56.644-46.437V92.511l-21.317 12.772 21.317 33.992Zm-69.566-82.603-48.83 28.175L82.926 98.43l26.197-41.757ZM57.79 161.634l56.163 24.078v-16.693l-56.163-7.385Zm117.915-76.787-48.83-28.175 26.198 41.757 22.632-13.582Z"/></symbol>
</svg>