<?xml version="1.0" standalone="no"?>
<!DOCTYPE svg PUBLIC "-//W3C//DTD SVG 20010904//EN"
 "http://www.w3.org/TR/2001/REC-SVG-20010904/DTD/svg10.dtd">
<svg version="1.0" xmlns="http://www.w3.org/2000/svg"
 width="700.000000pt" height="700.000000pt" viewBox="0 0 700.000000 700.000000"
 preserveAspectRatio="xMidYMid meet">
<metadata>
Created by potrace 1.14, written by Peter Selinger 2001-2017
</metadata>
<g transform="translate(0.000000,700.000000) scale(0.100000,-0.100000)"
fill="#000000" stroke="none">
<path d="M6585 6560 c-54 -12 -73 -29 -121 -110 -258 -434 -698 -714 -1186
-756 -40 -3 -453 -7 -918 -9 -465 -2 -867 -6 -895 -9 -42 -6 -114 -17 -255
-41 -56 -10 -274 -76 -361 -110 -103 -41 -263 -118 -354 -172 -65 -39 -137
-85 -145 -93 -3 -3 -17 -13 -32 -23 -52 -32 -193 -150 -271 -226 -186 -180
-344 -392 -469 -631 -61 -117 -154 -347 -144 -357 2 -3 21 4 43 15 179 91 583
230 773 265 183 34 232 41 445 63 33 4 381 7 773 8 600 1 721 -1 759 -13 89
-29 156 -130 147 -224 -8 -79 -75 -164 -148 -187 -28 -9 -226 -13 -775 -15
-405 -2 -749 -5 -766 -8 -16 -2 -59 -8 -95 -12 -58 -6 -173 -25 -240 -40 -14
-2 -34 -7 -45 -9 -185 -38 -476 -141 -665 -236 -474 -237 -863 -583 -1156
-1026 -72 -109 -210 -367 -261 -490 -80 -189 -164 -494 -189 -684 -3 -19 -7
-46 -9 -60 -14 -76 -20 -212 -20 -435 l0 -250 27 -55 c61 -128 165 -191 307
-186 115 3 197 47 260 140 48 70 54 105 57 324 3 257 11 355 45 527 88 444
318 868 639 1181 24 24 47 44 50 44 4 0 12 -24 20 -52 21 -83 98 -284 147
-383 162 -324 398 -618 663 -825 18 -14 44 -35 59 -46 14 -12 71 -51 126 -86
400 -261 844 -392 1325 -392 93 0 282 12 324 20 11 2 39 6 61 9 60 7 203 35
260 50 28 8 77 21 110 30 66 18 240 79 295 103 197 87 391 191 520 280 92 64
164 115 170 122 3 3 25 21 50 40 165 128 358 318 516 510 461 560 770 1257
898 2025 21 128 25 153 32 220 3 33 7 71 9 84 20 122 27 678 12 856 -11 123
-17 184 -23 225 -2 19 -9 67 -15 105 -5 39 -14 97 -20 130 -6 33 -13 71 -15
85 -3 14 -7 32 -9 40 -2 8 -7 31 -10 50 -28 169 -178 650 -211 675 -30 23 -67
32 -99 25z"/>
</g>
</svg>
